<svg width="441" height="414" viewBox="0 0 441 414" fill="none" xmlns="http://www.w3.org/2000/svg">
<path d="M385.875 275.998V137.998C385.868 131.948 384.167 126.006 380.942 120.768C377.717 115.53 373.081 111.181 367.5 108.156L238.875 39.1558C233.288 36.1278 226.951 34.5337 220.5 34.5337C214.049 34.5337 207.712 36.1278 202.125 39.1558L73.5 108.156C67.9188 111.181 63.2831 115.53 60.058 120.768C56.8328 126.006 55.1316 131.948 55.125 137.998V275.998C55.1316 282.048 56.8328 287.99 60.058 293.228C63.2831 298.466 67.9188 302.816 73.5 305.841L202.125 374.841C207.712 377.869 214.049 379.463 220.5 379.463C226.951 379.463 233.288 377.869 238.875 374.841L367.5 305.841C373.081 302.816 377.717 298.466 380.942 293.228C384.167 287.99 385.868 282.048 385.875 275.998Z" stroke="black" stroke-width="10" stroke-linecap="round" stroke-linejoin="round"/>
<path d="M60.0866 120.06L220.5 207.172L380.914 120.06" stroke="black" stroke-width="10" stroke-linecap="round" stroke-linejoin="round"/>
<path d="M220.5 380.88V207" stroke="black" stroke-width="10" stroke-linecap="round" stroke-linejoin="round"/>
</svg>
